<?xml version="1.0" standalone="no"?>
<!DOCTYPE svg PUBLIC "-//W3C//DTD SVG 20010904//EN"
 "http://www.w3.org/TR/2001/REC-SVG-20010904/DTD/svg10.dtd">
<svg version="1.0" xmlns="http://www.w3.org/2000/svg"
 width="4229.000000pt" height="1917.000000pt" viewBox="0 0 4229.000000 1917.000000"
 preserveAspectRatio="xMidYMid meet">

<g transform="translate(0.000000,1917.000000) scale(0.100000,-0.100000)"
fill="#000000" stroke="none">
<path d="M15075 19154 c-22 -2 -110 -8 -195 -14 -402 -28 -852 -120 -1205
-245 -552 -197 -986 -472 -1385 -881 -386 -396 -676 -863 -923 -1490 -432
-1095 -701 -2670 -797 -4669 -30 -641 -35 -879 -35 -1875 1 -1248 19 -1882 81
-2810 132 -1988 401 -3448 836 -4535 83 -207 248 -540 359 -725 500 -829 1175
-1376 2058 -1667 292 -97 584 -159 961 -204 165 -20 233 -23 620 -23 358 -1
463 2 595 17 617 70 1063 197 1520 431 198 101 328 182 500 311 697 522 1183
1277 1528 2375 371 1177 573 2641 649 4700 14 378 17 2081 5 2615 -36 1626
-132 2865 -298 3859 -215 1289 -516 2229 -947 2961 -322 545 -770 996 -1299
1308 -635 375 -1469 573 -2380 565 -114 -1 -226 -3 -248 -4z m558 -2285 c360
-52 626 -167 872 -375 148 -126 317 -347 433 -564 398 -751 581 -2144 663
-5060 16 -606 23 -2515 10 -3075 -52 -2246 -227 -3586 -575 -4390 -222 -513
-571 -859 -1018 -1009 -366 -122 -826 -125 -1188 -6 -406 133 -727 422 -968
870 -175 328 -289 706 -392 1300 -143 829 -226 1851 -272 3340 -14 449 -17
2566 -5 3215 39 2116 196 3646 452 4395 205 598 505 980 942 1199 162 81 362
136 598 164 70 9 382 6 448 -4z"/>
<path d="M26855 19149 c-1362 -85 -2387 -608 -3075 -1570 -489 -682 -838
-1646 -1070 -2954 -162 -914 -257 -1916 -311 -3280 -13 -342 -20 -1995 -9
-2425 57 -2346 254 -4077 615 -5395 245 -892 549 -1539 981 -2085 123 -155
414 -449 557 -564 592 -472 1255 -732 2132 -836 227 -27 795 -39 1040 -21
1576 115 2669 822 3339 2159 740 1474 1080 3868 1052 7392 -21 2665 -162 4320
-488 5700 -304 1293 -757 2209 -1394 2819 -594 570 -1347 908 -2282 1026 -312
40 -767 54 -1087 34z m652 -2284 c268 -38 478 -115 681 -248 186 -122 343
-282 483 -490 73 -110 223 -413 272 -552 292 -823 441 -2223 509 -4785 17
-637 17 -2920 0 -3395 -74 -2099 -249 -3295 -588 -4036 -225 -492 -561 -817
-996 -963 -366 -122 -826 -125 -1187 -7 -493 162 -861 551 -1105 1166 -68 174
-112 319 -165 549 -195 840 -303 1962 -362 3731 -17 508 -23 2439 -10 3115 44
2305 185 3728 447 4533 277 848 789 1309 1544 1390 95 10 384 5 477 -8z"/>
<path d="M20 18895 c5 -13 882 -2411 1950 -5328 l1940 -5303 0 -4017 0 -4017
1255 0 1255 0 0 4012 0 4011 1626 5316 c894 2924 1627 5324 1630 5334 5 16
-62 17 -1308 17 l-1313 0 -523 -2128 c-287 -1170 -558 -2287 -601 -2482 -44
-195 -166 -724 -271 -1175 -218 -935 -276 -1208 -354 -1665 -50 -292 -135
-835 -167 -1060 -6 -47 -15 -91 -18 -98 -4 -7 -20 54 -35 135 -197 1061 -502
2249 -886 3457 -59 187 -142 454 -183 591 -132 441 -1338 4409 -1343 4417 -3
4 -603 8 -1334 8 l-1330 0 10 -25z"/>
<path d="M33134 18798 c24 -68 769 -2132 1656 -4588 1019 -2823 1610 -4474
1607 -4490 -2 -14 -792 -2142 -1757 -4730 -964 -2588 -1755 -4715 -1758 -4727
l-4 -23 1326 0 1326 0 10 22 c11 27 1045 3284 1180 3718 50 162 195 619 320
1015 126 396 247 783 269 860 106 370 190 763 241 1130 11 83 23 161 27 175 3
16 21 -59 48 -205 123 -674 294 -1333 577 -2225 73 -233 270 -806 1220 -3560
l323 -935 1274 -3 c1210 -2 1273 -1 1266 15 -3 10 -783 2145 -1732 4745
l-1726 4727 1708 4538 c939 2496 1719 4566 1731 4601 l24 62 -1272 -2 -1272
-3 -363 -1165 c-200 -641 -514 -1646 -697 -2235 -593 -1897 -738 -2406 -906
-3160 -41 -183 -45 -194 -54 -125 -24 189 -152 737 -261 1120 -207 722 -419
1347 -1235 3627 l-695 1943 -1222 0 -1222 0 43 -122z"/>
</g>
</svg>
